<?xml version="1.0" encoding="utf-8" standalone="no"?>
<!DOCTYPE svg PUBLIC "-//W3C//DTD SVG 1.1//EN"
  "http://www.w3.org/Graphics/SVG/1.1/DTD/svg11.dtd">
<svg xmlns:xlink="http://www.w3.org/1999/xlink" width="576pt" height="288pt" viewBox="0 0 576 288" xmlns="http://www.w3.org/2000/svg" version="1.1">
 <metadata>
  <rdf:RDF xmlns:dc="http://purl.org/dc/elements/1.1/" xmlns:cc="http://creativecommons.org/ns#" xmlns:rdf="http://www.w3.org/1999/02/22-rdf-syntax-ns#">
   <cc:Work>
    <dc:type rdf:resource="http://purl.org/dc/dcmitype/StillImage"/>
    <dc:date>2026-02-06T23:10:59.777297</dc:date>
    <dc:format>image/svg+xml</dc:format>
    <dc:creator>
     <cc:Agent>
      <dc:title>Matplotlib v3.10.8, https://matplotlib.org/</dc:title>
     </cc:Agent>
    </dc:creator>
   </cc:Work>
  </rdf:RDF>
 </metadata>
 <defs>
  <style type="text/css">*{stroke-linejoin: round; stroke-linecap: butt}</style>
 </defs>
 <g id="figure_1">
  <g id="patch_1">
   <path d="M 0 288 
L 576 288 
L 576 0 
L 0 0 
z
" style="fill: #ffffff"/>
  </g>
  <g id="axes_1">
   <g id="patch_2">
    <path d="M 59.04 239.88375 
L 563.04 239.88375 
L 563.04 29.101875 
L 59.04 29.101875 
z
" style="fill: #ffffff"/>
   </g>
   <g id="matplotlib.axis_1">
    <g id="xtick_1">
     <g id="line2d_1">
      <path d="M 59.04 239.88375 
L 59.04 29.101875 
" clip-path="url(#pbe858a484c)" style="fill: none; stroke: #cccccc; stroke-opacity: 0.2; stroke-linecap: round"/>
     </g>
     <g id="text_1">
      <!-- 0.0 -->
      <g style="fill: #262626" transform="translate(51.395 257.257344) scale(0.11 -0.11)">
       <defs>
        <path id="ArialMT-30" d="M 266 2259 
Q 266 3072 433 3567 
Q 600 4063 929 4331 
Q 1259 4600 1759 4600 
Q 2128 4600 2406 4451 
Q 2684 4303 2865 4023 
Q 3047 3744 3150 3342 
Q 3253 2941 3253 2259 
Q 3253 1453 3087 958 
Q 2922 463 2592 192 
Q 2263 -78 1759 -78 
Q 1097 -78 719 397 
Q 266 969 266 2259 
z
M 844 2259 
Q 844 1131 1108 757 
Q 1372 384 1759 384 
Q 2147 384 2411 759 
Q 2675 1134 2675 2259 
Q 2675 3391 2411 3762 
Q 2147 4134 1753 4134 
Q 1366 4134 1134 3806 
Q 844 3388 844 2259 
z
" transform="scale(0.015625)"/>
        <path id="ArialMT-2e" d="M 581 0 
L 581 641 
L 1222 641 
L 1222 0 
L 581 0 
z
" transform="scale(0.015625)"/>
       </defs>
       <use xlink:href="#ArialMT-30"/>
       <use xlink:href="#ArialMT-2e" transform="translate(55.615234 0)"/>
       <use xlink:href="#ArialMT-30" transform="translate(83.398438 0)"/>
      </g>
     </g>
    </g>
    <g id="xtick_2">
     <g id="line2d_2">
      <path d="M 127.408375 239.88375 
L 127.408375 29.101875 
" clip-path="url(#pbe858a484c)" style="fill: none; stroke: #cccccc; stroke-opacity: 0.2; stroke-linecap: round"/>
     </g>
     <g id="text_2">
      <!-- 2.5 -->
      <g style="fill: #262626" transform="translate(119.763375 257.257344) scale(0.11 -0.11)">
       <defs>
        <path id="ArialMT-32" d="M 3222 541 
L 3222 0 
L 194 0 
Q 188 203 259 391 
Q 375 700 629 1000 
Q 884 1300 1366 1694 
Q 2113 2306 2375 2664 
Q 2638 3022 2638 3341 
Q 2638 3675 2398 3904 
Q 2159 4134 1775 4134 
Q 1369 4134 1125 3890 
Q 881 3647 878 3216 
L 300 3275 
Q 359 3922 746 4261 
Q 1134 4600 1788 4600 
Q 2447 4600 2831 4234 
Q 3216 3869 3216 3328 
Q 3216 3053 3103 2787 
Q 2991 2522 2730 2228 
Q 2469 1934 1863 1422 
Q 1356 997 1212 845 
Q 1069 694 975 541 
L 3222 541 
z
" transform="scale(0.015625)"/>
        <path id="ArialMT-35" d="M 266 1200 
L 856 1250 
Q 922 819 1161 601 
Q 1400 384 1738 384 
Q 2144 384 2425 690 
Q 2706 997 2706 1503 
Q 2706 1984 2436 2262 
Q 2166 2541 1728 2541 
Q 1456 2541 1237 2417 
Q 1019 2294 894 2097 
L 366 2166 
L 809 4519 
L 3088 4519 
L 3088 3981 
L 1259 3981 
L 1013 2750 
Q 1425 3038 1878 3038 
Q 2478 3038 2890 2622 
Q 3303 2206 3303 1553 
Q 3303 931 2941 478 
Q 2500 -78 1738 -78 
Q 1113 -78 717 272 
Q 322 622 266 1200 
z
" transform="scale(0.015625)"/>
       </defs>
       <use xlink:href="#ArialMT-32"/>
       <use xlink:href="#ArialMT-2e" transform="translate(55.615234 0)"/>
       <use xlink:href="#ArialMT-35" transform="translate(83.398438 0)"/>
      </g>
     </g>
    </g>
    <g id="xtick_3">
     <g id="line2d_3">
      <path d="M 195.776751 239.88375 
L 195.776751 29.101875 
" clip-path="url(#pbe858a484c)" style="fill: none; stroke: #cccccc; stroke-opacity: 0.2; stroke-linecap: round"/>
     </g>
     <g id="text_3">
      <!-- 5.0 -->
      <g style="fill: #262626" transform="translate(188.131751 257.257344) scale(0.11 -0.11)">
       <use xlink:href="#ArialMT-35"/>
       <use xlink:href="#ArialMT-2e" transform="translate(55.615234 0)"/>
       <use xlink:href="#ArialMT-30" transform="translate(83.398438 0)"/>
      </g>
     </g>
    </g>
    <g id="xtick_4">
     <g id="line2d_4">
      <path d="M 264.145126 239.88375 
L 264.145126 29.101875 
" clip-path="url(#pbe858a484c)" style="fill: none; stroke: #cccccc; stroke-opacity: 0.2; stroke-linecap: round"/>
     </g>
     <g id="text_4">
      <!-- 7.5 -->
      <g style="fill: #262626" transform="translate(256.500126 257.257344) scale(0.11 -0.11)">
       <defs>
        <path id="ArialMT-37" d="M 303 3981 
L 303 4522 
L 3269 4522 
L 3269 4084 
Q 2831 3619 2401 2847 
Q 1972 2075 1738 1259 
Q 1569 684 1522 0 
L 944 0 
Q 953 541 1156 1306 
Q 1359 2072 1739 2783 
Q 2119 3494 2547 3981 
L 303 3981 
z
" transform="scale(0.015625)"/>
       </defs>
       <use xlink:href="#ArialMT-37"/>
       <use xlink:href="#ArialMT-2e" transform="translate(55.615234 0)"/>
       <use xlink:href="#ArialMT-35" transform="translate(83.398438 0)"/>
      </g>
     </g>
    </g>
    <g id="xtick_5">
     <g id="line2d_5">
      <path d="M 332.513502 239.88375 
L 332.513502 29.101875 
" clip-path="url(#pbe858a484c)" style="fill: none; stroke: #cccccc; stroke-opacity: 0.2; stroke-linecap: round"/>
     </g>
     <g id="text_5">
      <!-- 10.0 -->
      <g style="fill: #262626" transform="translate(321.809986 257.257344) scale(0.11 -0.11)">
       <defs>
        <path id="ArialMT-31" d="M 2384 0 
L 1822 0 
L 1822 3584 
Q 1619 3391 1289 3197 
Q 959 3003 697 2906 
L 697 3450 
Q 1169 3672 1522 3987 
Q 1875 4303 2022 4600 
L 2384 4600 
L 2384 0 
z
" transform="scale(0.015625)"/>
       </defs>
       <use xlink:href="#ArialMT-31"/>
       <use xlink:href="#ArialMT-30" transform="translate(55.615234 0)"/>
       <use xlink:href="#ArialMT-2e" transform="translate(111.230469 0)"/>
       <use xlink:href="#ArialMT-30" transform="translate(139.013672 0)"/>
      </g>
     </g>
    </g>
    <g id="xtick_6">
     <g id="line2d_6">
      <path d="M 400.881877 239.88375 
L 400.881877 29.101875 
" clip-path="url(#pbe858a484c)" style="fill: none; stroke: #cccccc; stroke-opacity: 0.2; stroke-linecap: round"/>
     </g>
     <g id="text_6">
      <!-- 12.5 -->
      <g style="fill: #262626" transform="translate(390.178362 257.257344) scale(0.11 -0.11)">
       <use xlink:href="#ArialMT-31"/>
       <use xlink:href="#ArialMT-32" transform="translate(55.615234 0)"/>
       <use xlink:href="#ArialMT-2e" transform="translate(111.230469 0)"/>
       <use xlink:href="#ArialMT-35" transform="translate(139.013672 0)"/>
      </g>
     </g>
    </g>
    <g id="xtick_7">
     <g id="line2d_7">
      <path d="M 469.250253 239.88375 
L 469.250253 29.101875 
" clip-path="url(#pbe858a484c)" style="fill: none; stroke: #cccccc; stroke-opacity: 0.2; stroke-linecap: round"/>
     </g>
     <g id="text_7">
      <!-- 15.0 -->
      <g style="fill: #262626" transform="translate(458.546737 257.257344) scale(0.11 -0.11)">
       <use xlink:href="#ArialMT-31"/>
       <use xlink:href="#ArialMT-35" transform="translate(55.615234 0)"/>
       <use xlink:href="#ArialMT-2e" transform="translate(111.230469 0)"/>
       <use xlink:href="#ArialMT-30" transform="translate(139.013672 0)"/>
      </g>
     </g>
    </g>
    <g id="xtick_8">
     <g id="line2d_8">
      <path d="M 537.618628 239.88375 
L 537.618628 29.101875 
" clip-path="url(#pbe858a484c)" style="fill: none; stroke: #cccccc; stroke-opacity: 0.2; stroke-linecap: round"/>
     </g>
     <g id="text_8">
      <!-- 17.5 -->
      <g style="fill: #262626" transform="translate(526.915112 257.257344) scale(0.11 -0.11)">
       <use xlink:href="#ArialMT-31"/>
       <use xlink:href="#ArialMT-37" transform="translate(55.615234 0)"/>
       <use xlink:href="#ArialMT-2e" transform="translate(111.230469 0)"/>
       <use xlink:href="#ArialMT-35" transform="translate(139.013672 0)"/>
      </g>
     </g>
    </g>
    <g id="text_9">
     <!-- Latency (ms) -->
     <g style="fill: #262626" transform="translate(276.366562 272.179219) scale(0.12 -0.12)">
      <defs>
       <path id="ArialMT-4c" d="M 469 0 
L 469 4581 
L 1075 4581 
L 1075 541 
L 3331 541 
L 3331 0 
L 469 0 
z
" transform="scale(0.015625)"/>
       <path id="ArialMT-61" d="M 2588 409 
Q 2275 144 1986 34 
Q 1697 -75 1366 -75 
Q 819 -75 525 192 
Q 231 459 231 875 
Q 231 1119 342 1320 
Q 453 1522 633 1644 
Q 813 1766 1038 1828 
Q 1203 1872 1538 1913 
Q 2219 1994 2541 2106 
Q 2544 2222 2544 2253 
Q 2544 2597 2384 2738 
Q 2169 2928 1744 2928 
Q 1347 2928 1158 2789 
Q 969 2650 878 2297 
L 328 2372 
Q 403 2725 575 2942 
Q 747 3159 1072 3276 
Q 1397 3394 1825 3394 
Q 2250 3394 2515 3294 
Q 2781 3194 2906 3042 
Q 3031 2891 3081 2659 
Q 3109 2516 3109 2141 
L 3109 1391 
Q 3109 606 3145 398 
Q 3181 191 3288 0 
L 2700 0 
Q 2613 175 2588 409 
z
M 2541 1666 
Q 2234 1541 1622 1453 
Q 1275 1403 1131 1340 
Q 988 1278 909 1158 
Q 831 1038 831 891 
Q 831 666 1001 516 
Q 1172 366 1500 366 
Q 1825 366 2078 508 
Q 2331 650 2450 897 
Q 2541 1088 2541 1459 
L 2541 1666 
z
" transform="scale(0.015625)"/>
       <path id="ArialMT-74" d="M 1650 503 
L 1731 6 
Q 1494 -44 1306 -44 
Q 1000 -44 831 53 
Q 663 150 594 308 
Q 525 466 525 972 
L 525 2881 
L 113 2881 
L 113 3319 
L 525 3319 
L 525 4141 
L 1084 4478 
L 1084 3319 
L 1650 3319 
L 1650 2881 
L 1084 2881 
L 1084 941 
Q 1084 700 1114 631 
Q 1144 563 1211 522 
Q 1278 481 1403 481 
Q 1497 481 1650 503 
z
" transform="scale(0.015625)"/>
       <path id="ArialMT-65" d="M 2694 1069 
L 3275 997 
Q 3138 488 2766 206 
Q 2394 -75 1816 -75 
Q 1088 -75 661 373 
Q 234 822 234 1631 
Q 234 2469 665 2931 
Q 1097 3394 1784 3394 
Q 2450 3394 2872 2941 
Q 3294 2488 3294 1666 
Q 3294 1616 3291 1516 
L 816 1516 
Q 847 969 1125 678 
Q 1403 388 1819 388 
Q 2128 388 2347 550 
Q 2566 713 2694 1069 
z
M 847 1978 
L 2700 1978 
Q 2663 2397 2488 2606 
Q 2219 2931 1791 2931 
Q 1403 2931 1139 2672 
Q 875 2413 847 1978 
z
" transform="scale(0.015625)"/>
       <path id="ArialMT-6e" d="M 422 0 
L 422 3319 
L 928 3319 
L 928 2847 
Q 1294 3394 1984 3394 
Q 2284 3394 2536 3286 
Q 2788 3178 2913 3003 
Q 3038 2828 3088 2588 
Q 3119 2431 3119 2041 
L 3119 0 
L 2556 0 
L 2556 2019 
Q 2556 2363 2490 2533 
Q 2425 2703 2258 2804 
Q 2091 2906 1866 2906 
Q 1506 2906 1245 2678 
Q 984 2450 984 1813 
L 984 0 
L 422 0 
z
" transform="scale(0.015625)"/>
       <path id="ArialMT-63" d="M 2588 1216 
L 3141 1144 
Q 3050 572 2676 248 
Q 2303 -75 1759 -75 
Q 1078 -75 664 370 
Q 250 816 250 1647 
Q 250 2184 428 2587 
Q 606 2991 970 3192 
Q 1334 3394 1763 3394 
Q 2303 3394 2647 3120 
Q 2991 2847 3088 2344 
L 2541 2259 
Q 2463 2594 2264 2762 
Q 2066 2931 1784 2931 
Q 1359 2931 1093 2626 
Q 828 2322 828 1663 
Q 828 994 1084 691 
Q 1341 388 1753 388 
Q 2084 388 2306 591 
Q 2528 794 2588 1216 
z
" transform="scale(0.015625)"/>
       <path id="ArialMT-79" d="M 397 -1278 
L 334 -750 
Q 519 -800 656 -800 
Q 844 -800 956 -737 
Q 1069 -675 1141 -563 
Q 1194 -478 1313 -144 
Q 1328 -97 1363 -6 
L 103 3319 
L 709 3319 
L 1400 1397 
Q 1534 1031 1641 628 
Q 1738 1016 1872 1384 
L 2581 3319 
L 3144 3319 
L 1881 -56 
Q 1678 -603 1566 -809 
Q 1416 -1088 1222 -1217 
Q 1028 -1347 759 -1347 
Q 597 -1347 397 -1278 
z
" transform="scale(0.015625)"/>
       <path id="ArialMT-20" transform="scale(0.015625)"/>
       <path id="ArialMT-28" d="M 1497 -1347 
Q 1031 -759 709 28 
Q 388 816 388 1659 
Q 388 2403 628 3084 
Q 909 3875 1497 4659 
L 1900 4659 
Q 1522 4009 1400 3731 
Q 1209 3300 1100 2831 
Q 966 2247 966 1656 
Q 966 153 1900 -1347 
L 1497 -1347 
z
" transform="scale(0.015625)"/>
       <path id="ArialMT-6d" d="M 422 0 
L 422 3319 
L 925 3319 
L 925 2853 
Q 1081 3097 1340 3245 
Q 1600 3394 1931 3394 
Q 2300 3394 2536 3241 
Q 2772 3088 2869 2813 
Q 3263 3394 3894 3394 
Q 4388 3394 4653 3120 
Q 4919 2847 4919 2278 
L 4919 0 
L 4359 0 
L 4359 2091 
Q 4359 2428 4304 2576 
Q 4250 2725 4106 2815 
Q 3963 2906 3769 2906 
Q 3419 2906 3187 2673 
Q 2956 2441 2956 1928 
L 2956 0 
L 2394 0 
L 2394 2156 
Q 2394 2531 2256 2718 
Q 2119 2906 1806 2906 
Q 1569 2906 1367 2781 
Q 1166 2656 1075 2415 
Q 984 2175 984 1722 
L 984 0 
L 422 0 
z
" transform="scale(0.015625)"/>
       <path id="ArialMT-73" d="M 197 991 
L 753 1078 
Q 800 744 1014 566 
Q 1228 388 1613 388 
Q 2000 388 2187 545 
Q 2375 703 2375 916 
Q 2375 1106 2209 1216 
Q 2094 1291 1634 1406 
Q 1016 1563 777 1677 
Q 538 1791 414 1992 
Q 291 2194 291 2438 
Q 291 2659 392 2848 
Q 494 3038 669 3163 
Q 800 3259 1026 3326 
Q 1253 3394 1513 3394 
Q 1903 3394 2198 3281 
Q 2494 3169 2634 2976 
Q 2775 2784 2828 2463 
L 2278 2388 
Q 2241 2644 2061 2787 
Q 1881 2931 1553 2931 
Q 1166 2931 1000 2803 
Q 834 2675 834 2503 
Q 834 2394 903 2306 
Q 972 2216 1119 2156 
Q 1203 2125 1616 2013 
Q 2213 1853 2448 1751 
Q 2684 1650 2818 1456 
Q 2953 1263 2953 975 
Q 2953 694 2789 445 
Q 2625 197 2315 61 
Q 2006 -75 1616 -75 
Q 969 -75 630 194 
Q 291 463 197 991 
z
" transform="scale(0.015625)"/>
       <path id="ArialMT-29" d="M 791 -1347 
L 388 -1347 
Q 1322 153 1322 1656 
Q 1322 2244 1188 2822 
Q 1081 3291 891 3722 
Q 769 4003 388 4659 
L 791 4659 
Q 1378 3875 1659 3084 
Q 1900 2403 1900 1659 
Q 1900 816 1576 28 
Q 1253 -759 791 -1347 
z
" transform="scale(0.015625)"/>
      </defs>
      <use xlink:href="#ArialMT-4c"/>
      <use xlink:href="#ArialMT-61" transform="translate(55.615234 0)"/>
      <use xlink:href="#ArialMT-74" transform="translate(111.230469 0)"/>
      <use xlink:href="#ArialMT-65" transform="translate(139.013672 0)"/>
      <use xlink:href="#ArialMT-6e" transform="translate(194.628906 0)"/>
      <use xlink:href="#ArialMT-63" transform="translate(250.244141 0)"/>
      <use xlink:href="#ArialMT-79" transform="translate(300.244141 0)"/>
      <use xlink:href="#ArialMT-20" transform="translate(350.244141 0)"/>
      <use xlink:href="#ArialMT-28" transform="translate(378.027344 0)"/>
      <use xlink:href="#ArialMT-6d" transform="translate(411.328125 0)"/>
      <use xlink:href="#ArialMT-73" transform="translate(494.628906 0)"/>
      <use xlink:href="#ArialMT-29" transform="translate(544.628906 0)"/>
     </g>
    </g>
   </g>
   <g id="matplotlib.axis_2">
    <g id="ytick_1">
     <g id="line2d_9">
      <path d="M 59.04 239.88375 
L 563.04 239.88375 
" clip-path="url(#pbe858a484c)" style="fill: none; stroke: #cccccc; stroke-opacity: 0.2; stroke-linecap: round"/>
     </g>
     <g id="text_10">
      <!-- 0.90 -->
      <g style="fill: #262626" transform="translate(28.132969 243.820547) scale(0.11 -0.11)">
       <defs>
        <path id="ArialMT-39" d="M 350 1059 
L 891 1109 
Q 959 728 1153 556 
Q 1347 384 1650 384 
Q 1909 384 2104 503 
Q 2300 622 2425 820 
Q 2550 1019 2634 1356 
Q 2719 1694 2719 2044 
Q 2719 2081 2716 2156 
Q 2547 1888 2255 1720 
Q 1963 1553 1622 1553 
Q 1053 1553 659 1965 
Q 266 2378 266 3053 
Q 266 3750 677 4175 
Q 1088 4600 1706 4600 
Q 2153 4600 2523 4359 
Q 2894 4119 3086 3673 
Q 3278 3228 3278 2384 
Q 3278 1506 3087 986 
Q 2897 466 2520 194 
Q 2144 -78 1638 -78 
Q 1100 -78 759 220 
Q 419 519 350 1059 
z
M 2653 3081 
Q 2653 3566 2395 3850 
Q 2138 4134 1775 4134 
Q 1400 4134 1122 3828 
Q 844 3522 844 3034 
Q 844 2597 1108 2323 
Q 1372 2050 1759 2050 
Q 2150 2050 2401 2323 
Q 2653 2597 2653 3081 
z
" transform="scale(0.015625)"/>
       </defs>
       <use xlink:href="#ArialMT-30"/>
       <use xlink:href="#ArialMT-2e" transform="translate(55.615234 0)"/>
       <use xlink:href="#ArialMT-39" transform="translate(83.398438 0)"/>
       <use xlink:href="#ArialMT-30" transform="translate(139.013672 0)"/>
      </g>
     </g>
    </g>
    <g id="ytick_2">
     <g id="line2d_10">
      <path d="M 59.04 197.727375 
L 563.04 197.727375 
" clip-path="url(#pbe858a484c)" style="fill: none; stroke: #cccccc; stroke-opacity: 0.2; stroke-linecap: round"/>
     </g>
     <g id="text_11">
      <!-- 0.92 -->
      <g style="fill: #262626" transform="translate(28.132969 201.664172) scale(0.11 -0.11)">
       <use xlink:href="#ArialMT-30"/>
       <use xlink:href="#ArialMT-2e" transform="translate(55.615234 0)"/>
       <use xlink:href="#ArialMT-39" transform="translate(83.398438 0)"/>
       <use xlink:href="#ArialMT-32" transform="translate(139.013672 0)"/>
      </g>
     </g>
    </g>
    <g id="ytick_3">
     <g id="line2d_11">
      <path d="M 59.04 155.571 
L 563.04 155.571 
" clip-path="url(#pbe858a484c)" style="fill: none; stroke: #cccccc; stroke-opacity: 0.2; stroke-linecap: round"/>
     </g>
     <g id="text_12">
      <!-- 0.94 -->
      <g style="fill: #262626" transform="translate(28.132969 159.507797) scale(0.11 -0.11)">
       <defs>
        <path id="ArialMT-34" d="M 2069 0 
L 2069 1097 
L 81 1097 
L 81 1613 
L 2172 4581 
L 2631 4581 
L 2631 1613 
L 3250 1613 
L 3250 1097 
L 2631 1097 
L 2631 0 
L 2069 0 
z
M 2069 1613 
L 2069 3678 
L 634 1613 
L 2069 1613 
z
" transform="scale(0.015625)"/>
       </defs>
       <use xlink:href="#ArialMT-30"/>
       <use xlink:href="#ArialMT-2e" transform="translate(55.615234 0)"/>
       <use xlink:href="#ArialMT-39" transform="translate(83.398438 0)"/>
       <use xlink:href="#ArialMT-34" transform="translate(139.013672 0)"/>
      </g>
     </g>
    </g>
    <g id="ytick_4">
     <g id="line2d_12">
      <path d="M 59.04 113.414625 
L 563.04 113.414625 
" clip-path="url(#pbe858a484c)" style="fill: none; stroke: #cccccc; stroke-opacity: 0.2; stroke-linecap: round"/>
     </g>
     <g id="text_13">
      <!-- 0.96 -->
      <g style="fill: #262626" transform="translate(28.132969 117.351422) scale(0.11 -0.11)">
       <defs>
        <path id="ArialMT-36" d="M 3184 3459 
L 2625 3416 
Q 2550 3747 2413 3897 
Q 2184 4138 1850 4138 
Q 1581 4138 1378 3988 
Q 1113 3794 959 3422 
Q 806 3050 800 2363 
Q 1003 2672 1297 2822 
Q 1591 2972 1913 2972 
Q 2475 2972 2870 2558 
Q 3266 2144 3266 1488 
Q 3266 1056 3080 686 
Q 2894 316 2569 119 
Q 2244 -78 1831 -78 
Q 1128 -78 684 439 
Q 241 956 241 2144 
Q 241 3472 731 4075 
Q 1159 4600 1884 4600 
Q 2425 4600 2770 4297 
Q 3116 3994 3184 3459 
z
M 888 1484 
Q 888 1194 1011 928 
Q 1134 663 1356 523 
Q 1578 384 1822 384 
Q 2178 384 2434 671 
Q 2691 959 2691 1453 
Q 2691 1928 2437 2201 
Q 2184 2475 1800 2475 
Q 1419 2475 1153 2201 
Q 888 1928 888 1484 
z
" transform="scale(0.015625)"/>
       </defs>
       <use xlink:href="#ArialMT-30"/>
       <use xlink:href="#ArialMT-2e" transform="translate(55.615234 0)"/>
       <use xlink:href="#ArialMT-39" transform="translate(83.398438 0)"/>
       <use xlink:href="#ArialMT-36" transform="translate(139.013672 0)"/>
      </g>
     </g>
    </g>
    <g id="ytick_5">
     <g id="line2d_13">
      <path d="M 59.04 71.25825 
L 563.04 71.25825 
" clip-path="url(#pbe858a484c)" style="fill: none; stroke: #cccccc; stroke-opacity: 0.2; stroke-linecap: round"/>
     </g>
     <g id="text_14">
      <!-- 0.98 -->
      <g style="fill: #262626" transform="translate(28.132969 75.195047) scale(0.11 -0.11)">
       <defs>
        <path id="ArialMT-38" d="M 1131 2484 
Q 781 2613 612 2850 
Q 444 3088 444 3419 
Q 444 3919 803 4259 
Q 1163 4600 1759 4600 
Q 2359 4600 2725 4251 
Q 3091 3903 3091 3403 
Q 3091 3084 2923 2848 
Q 2756 2613 2416 2484 
Q 2838 2347 3058 2040 
Q 3278 1734 3278 1309 
Q 3278 722 2862 322 
Q 2447 -78 1769 -78 
Q 1091 -78 675 323 
Q 259 725 259 1325 
Q 259 1772 486 2073 
Q 713 2375 1131 2484 
z
M 1019 3438 
Q 1019 3113 1228 2906 
Q 1438 2700 1772 2700 
Q 2097 2700 2305 2904 
Q 2513 3109 2513 3406 
Q 2513 3716 2298 3927 
Q 2084 4138 1766 4138 
Q 1444 4138 1231 3931 
Q 1019 3725 1019 3438 
z
M 838 1322 
Q 838 1081 952 856 
Q 1066 631 1291 507 
Q 1516 384 1775 384 
Q 2178 384 2440 643 
Q 2703 903 2703 1303 
Q 2703 1709 2433 1975 
Q 2163 2241 1756 2241 
Q 1359 2241 1098 1978 
Q 838 1716 838 1322 
z
" transform="scale(0.015625)"/>
       </defs>
       <use xlink:href="#ArialMT-30"/>
       <use xlink:href="#ArialMT-2e" transform="translate(55.615234 0)"/>
       <use xlink:href="#ArialMT-39" transform="translate(83.398438 0)"/>
       <use xlink:href="#ArialMT-38" transform="translate(139.013672 0)"/>
      </g>
     </g>
    </g>
    <g id="ytick_6">
     <g id="line2d_14">
      <path d="M 59.04 29.101875 
L 563.04 29.101875 
" clip-path="url(#pbe858a484c)" style="fill: none; stroke: #cccccc; stroke-opacity: 0.2; stroke-linecap: round"/>
     </g>
     <g id="text_15">
      <!-- 1.00 -->
      <g style="fill: #262626" transform="translate(28.132969 33.038672) scale(0.11 -0.11)">
       <use xlink:href="#ArialMT-31"/>
       <use xlink:href="#ArialMT-2e" transform="translate(55.615234 0)"/>
       <use xlink:href="#ArialMT-30" transform="translate(83.398438 0)"/>
       <use xlink:href="#ArialMT-30" transform="translate(139.013672 0)"/>
      </g>
     </g>
    </g>
    <g id="text_16">
     <!-- CDF -->
     <g style="fill: #262626" transform="translate(21.747969 146.82375) rotate(-90) scale(0.12 -0.12)">
      <defs>
       <path id="ArialMT-43" d="M 3763 1606 
L 4369 1453 
Q 4178 706 3683 314 
Q 3188 -78 2472 -78 
Q 1731 -78 1267 223 
Q 803 525 561 1097 
Q 319 1669 319 2325 
Q 319 3041 592 3573 
Q 866 4106 1370 4382 
Q 1875 4659 2481 4659 
Q 3169 4659 3637 4309 
Q 4106 3959 4291 3325 
L 3694 3184 
Q 3534 3684 3231 3912 
Q 2928 4141 2469 4141 
Q 1941 4141 1586 3887 
Q 1231 3634 1087 3207 
Q 944 2781 944 2328 
Q 944 1744 1114 1308 
Q 1284 872 1643 656 
Q 2003 441 2422 441 
Q 2931 441 3284 734 
Q 3638 1028 3763 1606 
z
" transform="scale(0.015625)"/>
       <path id="ArialMT-44" d="M 494 0 
L 494 4581 
L 2072 4581 
Q 2606 4581 2888 4516 
Q 3281 4425 3559 4188 
Q 3922 3881 4101 3404 
Q 4281 2928 4281 2316 
Q 4281 1794 4159 1391 
Q 4038 988 3847 723 
Q 3656 459 3429 307 
Q 3203 156 2883 78 
Q 2563 0 2147 0 
L 494 0 
z
M 1100 541 
L 2078 541 
Q 2531 541 2789 625 
Q 3047 709 3200 863 
Q 3416 1078 3536 1442 
Q 3656 1806 3656 2325 
Q 3656 3044 3420 3430 
Q 3184 3816 2847 3947 
Q 2603 4041 2063 4041 
L 1100 4041 
L 1100 541 
z
" transform="scale(0.015625)"/>
       <path id="ArialMT-46" d="M 525 0 
L 525 4581 
L 3616 4581 
L 3616 4041 
L 1131 4041 
L 1131 2622 
L 3281 2622 
L 3281 2081 
L 1131 2081 
L 1131 0 
L 525 0 
z
" transform="scale(0.015625)"/>
      </defs>
      <use xlink:href="#ArialMT-43"/>
      <use xlink:href="#ArialMT-44" transform="translate(72.216797 0)"/>
      <use xlink:href="#ArialMT-46" transform="translate(144.433594 0)"/>
     </g>
    </g>
   </g>
   <g id="line2d_15">
    <path d="M 459.716881 289 
L 459.72085 288.743602 
L 460.108252 286.973318 
L 460.301981 285.203033 
L 460.495682 284.022844 
L 460.534406 282.842654 
L 460.900177 282.252559 
L 461.228372 278.71199 
L 461.586158 277.5318 
L 461.889276 276.941706 
L 462.012311 275.761516 
L 462.025985 275.171421 
L 462.153615 274.581326 
L 462.154764 273.991231 
L 462.521683 273.401137 
L 462.628775 270.450662 
L 462.796278 269.270473 
L 462.803115 268.680378 
L 462.942121 268.090283 
L 463.204218 267.500188 
L 463.320417 266.319999 
L 463.48565 265.139809 
L 463.575677 262.77943 
L 463.891321 259.238861 
L 464.08617 258.648766 
L 464.245687 256.878481 
L 464.708295 256.288386 
L 464.859854 253.928007 
L 464.93279 253.337912 
L 465.20856 252.747817 
L 465.740685 245.666679 
L 465.748643 245.076585 
L 465.944642 243.896395 
L 466.01301 242.716205 
L 466.546283 240.945921 
L 466.728581 239.175636 
L 466.768481 237.405352 
L 466.972464 235.635067 
L 467.018025 234.454878 
L 467.324534 232.684593 
L 467.534206 229.734119 
L 467.706249 229.144024 
L 467.715383 228.553929 
L 467.896559 227.37374 
L 467.96036 226.783645 
L 468.136997 226.19355 
L 468.483378 221.472791 
L 468.915248 220.292601 
L 469.066807 219.112412 
L 470.053581 212.031274 
L 470.061566 211.441179 
L 470.206261 210.851084 
L 470.208558 210.260989 
L 470.328203 209.670894 
L 470.681421 209.0808 
L 470.83752 207.90061 
L 471.013008 206.130325 
L 471.288751 204.360041 
L 471.450566 202.589756 
L 471.741159 201.999662 
L 472.198051 198.459093 
L 472.373539 196.098713 
L 472.587778 194.918524 
L 472.595763 194.328429 
L 472.735891 193.738334 
L 473.031024 193.148239 
L 473.093704 191.377955 
L 473.293093 190.78786 
L 473.434397 189.017575 
L 473.606467 186.067101 
L 473.802438 184.886911 
L 474.048564 184.296817 
L 474.184179 181.936437 
L 474.258236 181.346342 
L 474.523724 180.756248 
L 474.985238 177.805773 
L 475.413662 176.035489 
L 475.578894 174.265204 
L 475.708767 172.49492 
L 475.93668 171.904825 
L 475.974282 171.31473 
L 476.138366 170.724635 
L 476.144082 170.134541 
L 476.37194 169.544446 
L 476.485924 167.774161 
L 476.709242 167.184066 
L 476.768504 165.413782 
L 477.095524 164.823687 
L 477.267593 163.643497 
L 477.386089 162.463308 
L 477.503464 161.283118 
L 477.878342 160.693023 
L 478.039007 160.102928 
L 478.100539 158.922739 
L 478.255516 158.332644 
L 478.279445 157.742549 
L 478.605316 157.152454 
L 478.6395 156.562359 
L 479.47704 155.972264 
L 479.675309 154.792075 
L 480.215419 149.481221 
L 480.36695 148.891126 
L 481.315001 147.710937 
L 481.588474 146.530747 
L 481.752559 145.350557 
L 482.047664 141.809988 
L 482.380399 141.219894 
L 482.497774 140.039704 
L 482.576398 137.08923 
L 482.978622 136.499135 
L 483.146125 135.318945 
L 483.476563 134.72885 
L 483.479981 134.138756 
L 483.625825 133.548661 
L 484.091878 132.958566 
L 484.265069 131.778376 
L 484.358515 130.598187 
L 484.377904 130.008092 
L 484.936228 128.827902 
L 485.322536 128.237807 
L 486.435792 125.287333 
L 486.749138 124.697238 
L 486.905237 123.517049 
L 486.907507 122.926954 
L 487.094399 122.336859 
L 487.096668 121.746764 
L 487.35078 121.156669 
L 487.351929 120.566574 
L 487.572977 119.97648 
L 487.880635 118.206195 
L 488.197427 117.026005 
L 488.624702 116.435911 
L 488.679424 115.845816 
L 489.413235 114.075531 
L 489.692397 112.895342 
L 489.919161 111.715152 
L 489.929416 111.125057 
L 490.152762 110.534962 
L 490.842134 109.354773 
L 491.068871 108.764678 
L 492.15024 107.584488 
L 492.538818 106.404298 
L 492.879484 105.814204 
L 492.990022 104.634014 
L 493.444699 104.043919 
L 494.087335 101.093445 
L 494.333461 99.32316 
L 494.398411 98.142971 
L 495.230235 97.552876 
L 495.403426 96.962781 
L 496.337803 96.372686 
L 496.591914 95.782591 
L 496.710411 94.012307 
L 497.181031 92.832117 
L 497.767851 92.242022 
L 498.036757 91.651927 
L 498.158672 89.881643 
L 498.35694 89.291548 
L 498.41962 88.111358 
L 499.173942 87.521264 
L 499.520351 86.931169 
L 499.589868 85.750979 
L 500.003469 85.160884 
L 500.208574 83.980695 
L 500.826187 83.3906 
L 500.923024 82.21041 
L 501.348056 81.620315 
L 501.741174 80.440126 
L 503.104002 79.850031 
L 503.607631 79.259936 
L 504.610376 78.669841 
L 505.204033 78.079746 
L 505.381818 77.489651 
L 505.559576 75.129272 
L 505.968637 74.539177 
L 507.159368 73.949082 
L 508.017419 73.358988 
L 508.04132 72.768893 
L 508.289744 72.178798 
L 511.67056 70.998608 
L 511.964544 69.818419 
L 512.691518 69.228324 
L 513.14048 68.638229 
L 513.884546 68.048134 
L 514.126106 66.867944 
L 514.274246 65.687755 
L 514.573918 65.09766 
L 515.519699 64.507565 
L 515.539061 63.91747 
L 515.870648 63.327375 
L 516.7526 62.737281 
L 516.987322 62.147186 
L 517.652793 61.557091 
L 517.821416 60.966996 
L 518.67717 60.376901 
L 518.927863 59.786806 
L 519.403023 59.196712 
L 520.931056 58.606617 
L 522.072808 57.426427 
L 522.077348 56.836332 
L 522.939938 56.246237 
L 524.047505 55.656143 
L 525.11974 54.475953 
L 527.516052 52.705668 
L 527.634575 52.115574 
L 528.701122 51.525479 
L 529.022453 50.345289 
L 529.126127 49.755194 
L 529.395061 49.165099 
L 530.710004 48.575005 
L 535.179026 47.98491 
L 536.000595 46.80472 
L 536.966831 46.214625 
L 538.938138 45.62453 
L 539.183115 45.034436 
L 540.059379 44.444341 
L 540.550483 43.854246 
L 542.763348 43.264151 
L 542.917177 42.674056 
L 544.18995 42.083961 
L 544.495365 41.493867 
L 546.259242 40.903772 
L 546.380035 40.313677 
L 547.375916 39.133487 
L 547.498979 38.543392 
L 548.915353 37.953298 
L 548.927906 37.363203 
L 549.28684 36.773108 
L 550.65418 36.183013 
L 554.430412 35.592918 
L 556.823305 34.412729 
L 557.168565 33.822634 
L 559.017929 33.232539 
L 560.242872 32.642444 
L 561.004031 32.052349 
L 562.177697 31.462254 
L 564.187727 30.87216 
L 564.187727 30.87216 
" clip-path="url(#pbe858a484c)" style="fill: none; stroke: #4c72b0; stroke-opacity: 0.9; stroke-width: 1.5; stroke-linecap: round"/>
   </g>
   <g id="patch_3">
    <path d="M 59.04 239.88375 
L 59.04 29.101875 
" style="fill: none; stroke: #cccccc; stroke-width: 1.25; stroke-linejoin: miter; stroke-linecap: square"/>
   </g>
   <g id="patch_4">
    <path d="M 563.04 239.88375 
L 563.04 29.101875 
" style="fill: none; stroke: #cccccc; stroke-width: 1.25; stroke-linejoin: miter; stroke-linecap: square"/>
   </g>
   <g id="patch_5">
    <path d="M 59.04 239.88375 
L 563.04 239.88375 
" style="fill: none; stroke: #cccccc; stroke-width: 1.25; stroke-linejoin: miter; stroke-linecap: square"/>
   </g>
   <g id="patch_6">
    <path d="M 59.04 29.101875 
L 563.04 29.101875 
" style="fill: none; stroke: #cccccc; stroke-width: 1.25; stroke-linejoin: miter; stroke-linecap: square"/>
   </g>
   <g id="text_17">
    <!-- Latency CDF tail (p90-p100) — UP -->
    <g style="fill: #262626" transform="translate(202.501719 23.101875) scale(0.14 -0.14)">
     <defs>
      <path id="ArialMT-69" d="M 425 3934 
L 425 4581 
L 988 4581 
L 988 3934 
L 425 3934 
z
M 425 0 
L 425 3319 
L 988 3319 
L 988 0 
L 425 0 
z
" transform="scale(0.015625)"/>
      <path id="ArialMT-6c" d="M 409 0 
L 409 4581 
L 972 4581 
L 972 0 
L 409 0 
z
" transform="scale(0.015625)"/>
      <path id="ArialMT-70" d="M 422 -1272 
L 422 3319 
L 934 3319 
L 934 2888 
Q 1116 3141 1344 3267 
Q 1572 3394 1897 3394 
Q 2322 3394 2647 3175 
Q 2972 2956 3137 2557 
Q 3303 2159 3303 1684 
Q 3303 1175 3120 767 
Q 2938 359 2589 142 
Q 2241 -75 1856 -75 
Q 1575 -75 1351 44 
Q 1128 163 984 344 
L 984 -1272 
L 422 -1272 
z
M 931 1641 
Q 931 1000 1190 694 
Q 1450 388 1819 388 
Q 2194 388 2461 705 
Q 2728 1022 2728 1688 
Q 2728 2322 2467 2637 
Q 2206 2953 1844 2953 
Q 1484 2953 1207 2617 
Q 931 2281 931 1641 
z
" transform="scale(0.015625)"/>
      <path id="ArialMT-2d" d="M 203 1375 
L 203 1941 
L 1931 1941 
L 1931 1375 
L 203 1375 
z
" transform="scale(0.015625)"/>
      <path id="ArialMT-2014" d="M 0 1431 
L 0 1884 
L 6400 1884 
L 6400 1431 
L 0 1431 
z
" transform="scale(0.015625)"/>
      <path id="ArialMT-55" d="M 3500 4581 
L 4106 4581 
L 4106 1934 
Q 4106 1244 3950 837 
Q 3794 431 3386 176 
Q 2978 -78 2316 -78 
Q 1672 -78 1262 144 
Q 853 366 678 786 
Q 503 1206 503 1934 
L 503 4581 
L 1109 4581 
L 1109 1938 
Q 1109 1341 1220 1058 
Q 1331 775 1601 622 
Q 1872 469 2263 469 
Q 2931 469 3215 772 
Q 3500 1075 3500 1938 
L 3500 4581 
z
" transform="scale(0.015625)"/>
      <path id="ArialMT-50" d="M 494 0 
L 494 4581 
L 2222 4581 
Q 2678 4581 2919 4538 
Q 3256 4481 3484 4323 
Q 3713 4166 3852 3881 
Q 3991 3597 3991 3256 
Q 3991 2672 3619 2267 
Q 3247 1863 2275 1863 
L 1100 1863 
L 1100 0 
L 494 0 
z
M 1100 2403 
L 2284 2403 
Q 2872 2403 3119 2622 
Q 3366 2841 3366 3238 
Q 3366 3525 3220 3729 
Q 3075 3934 2838 4000 
Q 2684 4041 2272 4041 
L 1100 4041 
L 1100 2403 
z
" transform="scale(0.015625)"/>
     </defs>
     <use xlink:href="#ArialMT-4c"/>
     <use xlink:href="#ArialMT-61" transform="translate(55.615234 0)"/>
     <use xlink:href="#ArialMT-74" transform="translate(111.230469 0)"/>
     <use xlink:href="#ArialMT-65" transform="translate(139.013672 0)"/>
     <use xlink:href="#ArialMT-6e" transform="translate(194.628906 0)"/>
     <use xlink:href="#ArialMT-63" transform="translate(250.244141 0)"/>
     <use xlink:href="#ArialMT-79" transform="translate(300.244141 0)"/>
     <use xlink:href="#ArialMT-20" transform="translate(350.244141 0)"/>
     <use xlink:href="#ArialMT-43" transform="translate(378.027344 0)"/>
     <use xlink:href="#ArialMT-44" transform="translate(450.244141 0)"/>
     <use xlink:href="#ArialMT-46" transform="translate(522.460938 0)"/>
     <use xlink:href="#ArialMT-20" transform="translate(583.544922 0)"/>
     <use xlink:href="#ArialMT-74" transform="translate(611.328125 0)"/>
     <use xlink:href="#ArialMT-61" transform="translate(639.111328 0)"/>
     <use xlink:href="#ArialMT-69" transform="translate(694.726562 0)"/>
     <use xlink:href="#ArialMT-6c" transform="translate(716.943359 0)"/>
     <use xlink:href="#ArialMT-20" transform="translate(739.160156 0)"/>
     <use xlink:href="#ArialMT-28" transform="translate(766.943359 0)"/>
     <use xlink:href="#ArialMT-70" transform="translate(800.244141 0)"/>
     <use xlink:href="#ArialMT-39" transform="translate(855.859375 0)"/>
     <use xlink:href="#ArialMT-30" transform="translate(911.474609 0)"/>
     <use xlink:href="#ArialMT-2d" transform="translate(967.089844 0)"/>
     <use xlink:href="#ArialMT-70" transform="translate(1000.390625 0)"/>
     <use xlink:href="#ArialMT-31" transform="translate(1056.005859 0)"/>
     <use xlink:href="#ArialMT-30" transform="translate(1111.621094 0)"/>
     <use xlink:href="#ArialMT-30" transform="translate(1167.236328 0)"/>
     <use xlink:href="#ArialMT-29" transform="translate(1222.851562 0)"/>
     <use xlink:href="#ArialMT-20" transform="translate(1256.152344 0)"/>
     <use xlink:href="#ArialMT-2014" transform="translate(1283.935547 0)"/>
     <use xlink:href="#ArialMT-20" transform="translate(1383.935547 0)"/>
     <use xlink:href="#ArialMT-55" transform="translate(1411.71875 0)"/>
     <use xlink:href="#ArialMT-50" transform="translate(1483.935547 0)"/>
    </g>
   </g>
   <g id="legend_1">
    <g id="patch_7">
     <path d="M 66.0372 51.238329 
L 126.905031 51.238329 
Q 128.904231 51.238329 128.904231 49.239129 
L 128.904231 36.099075 
Q 128.904231 34.099875 126.905031 34.099875 
L 66.0372 34.099875 
Q 64.038 34.099875 64.038 36.099075 
L 64.038 49.239129 
Q 64.038 51.238329 66.0372 51.238329 
z
" style="fill: #ffffff; opacity: 0.8; stroke: #cccccc; stroke-linejoin: miter"/>
    </g>
    <g id="line2d_16">
     <path d="M 68.0364 41.754624 
L 78.0324 41.754624 
L 88.0284 41.754624 
" style="fill: none; stroke: #4c72b0; stroke-opacity: 0.9; stroke-width: 1.5; stroke-linecap: round"/>
    </g>
    <g id="text_18">
     <!-- RAMP -->
     <g style="fill: #262626" transform="translate(96.0252 45.253224) scale(0.09996 -0.09996)">
      <defs>
       <path id="ArialMT-52" d="M 503 0 
L 503 4581 
L 2534 4581 
Q 3147 4581 3465 4457 
Q 3784 4334 3975 4021 
Q 4166 3709 4166 3331 
Q 4166 2844 3850 2509 
Q 3534 2175 2875 2084 
Q 3116 1969 3241 1856 
Q 3506 1613 3744 1247 
L 4541 0 
L 3778 0 
L 3172 953 
Q 2906 1366 2734 1584 
Q 2563 1803 2427 1890 
Q 2291 1978 2150 2013 
Q 2047 2034 1813 2034 
L 1109 2034 
L 1109 0 
L 503 0 
z
M 1109 2559 
L 2413 2559 
Q 2828 2559 3062 2645 
Q 3297 2731 3419 2920 
Q 3541 3109 3541 3331 
Q 3541 3656 3305 3865 
Q 3069 4075 2559 4075 
L 1109 4075 
L 1109 2559 
z
" transform="scale(0.015625)"/>
       <path id="ArialMT-41" d="M -9 0 
L 1750 4581 
L 2403 4581 
L 4278 0 
L 3588 0 
L 3053 1388 
L 1138 1388 
L 634 0 
L -9 0 
z
M 1313 1881 
L 2866 1881 
L 2388 3150 
Q 2169 3728 2063 4100 
Q 1975 3659 1816 3225 
L 1313 1881 
z
" transform="scale(0.015625)"/>
       <path id="ArialMT-4d" d="M 475 0 
L 475 4581 
L 1388 4581 
L 2472 1338 
Q 2622 884 2691 659 
Q 2769 909 2934 1394 
L 4031 4581 
L 4847 4581 
L 4847 0 
L 4263 0 
L 4263 3834 
L 2931 0 
L 2384 0 
L 1059 3900 
L 1059 0 
L 475 0 
z
" transform="scale(0.015625)"/>
      </defs>
      <use xlink:href="#ArialMT-52"/>
      <use xlink:href="#ArialMT-41" transform="translate(72.216797 0)"/>
      <use xlink:href="#ArialMT-4d" transform="translate(138.916016 0)"/>
      <use xlink:href="#ArialMT-50" transform="translate(222.216797 0)"/>
     </g>
    </g>
   </g>
  </g>
 </g>
 <defs>
  <clipPath id="pbe858a484c">
   <rect x="59.04" y="29.101875" width="504" height="210.781875"/>
  </clipPath>
 </defs>
</svg>
